<svg width="69" height="134" viewBox="0 0 69 134" fill="none" xmlns="http://www.w3.org/2000/svg">
<g filter="url(#filter0_dd_609_140)">
<path d="M5.36572 76.1007C0.289284 70.3394 0.25959 61.7107 5.29625 55.9145L50.559 3.82639C55.1302 -1.43409 63.7793 1.7988 63.7793 8.76789L63.7793 122.45C63.7793 129.393 55.1835 132.64 50.5932 127.43L5.36572 76.1007Z" fill="url(#paint0_linear_609_140)" stroke="black" stroke-width="1.55869"/>
<path d="M6.424 56.8945C1.87831 62.1256 1.90511 69.9132 6.4867 75.113L51.7141 126.443C55.3942 130.619 62.2853 128.016 62.2853 122.45L62.2853 8.76789C62.2853 3.18088 55.3514 0.589128 51.6868 4.80637L6.424 56.8945Z" fill="url(#paint1_linear_609_140)" stroke="url(#paint2_linear_609_140)" stroke-width="1.42941"/>
<g filter="url(#filter1_f_609_140)">
<path fill-rule="evenodd" clip-rule="evenodd" d="M58.5771 63.8282C58.5771 66.4108 56.4836 68.5043 53.9011 68.5043H13.8722C8.98595 68.5043 6.35298 62.77 9.53769 59.0641L52.1819 9.44181C54.3811 6.8827 58.5771 8.43799 58.5771 11.8122V63.8282Z" fill="url(#paint3_linear_609_140)"/>
</g>
<g filter="url(#filter2_f_609_140)">
<path d="M47.6149 13.6253C45.3092 20.0458 46.2128 26.2462 49.633 27.4745C53.0532 28.7027 57.4513 24.5753 59.757 18.1549C62.0626 11.7344 62.073 5.41759 57.9825 4.22393C53.931 2.78789 49.9205 7.20483 47.6149 13.6253Z" fill="#FFF0A3" fill-opacity="0.4"/>
</g>
</g>
<defs>
<filter id="filter0_dd_609_140" x="0.401436" y="0.438179" width="67.7307" height="133.557" filterUnits="userSpaceOnUse" color-interpolation-filters="sRGB">
<feFlood flood-opacity="0" result="BackgroundImageFix"/>
<feColorMatrix in="SourceAlpha" type="matrix" values="0 0 0 0 0 0 0 0 0 0 0 0 0 0 0 0 0 0 127 0" result="hardAlpha"/>
<feOffset dx="0.714706" dy="2.14412"/>
<feGaussianBlur stdDeviation="0.536029"/>
<feComposite in2="hardAlpha" operator="out"/>
<feColorMatrix type="matrix" values="0 0 0 0 0 0 0 0 0 0 0 0 0 0 0 0 0 0 0.35 0"/>
<feBlend mode="normal" in2="BackgroundImageFix" result="effect1_dropShadow_609_140"/>
<feColorMatrix in="SourceAlpha" type="matrix" values="0 0 0 0 0 0 0 0 0 0 0 0 0 0 0 0 0 0 127 0" result="hardAlpha"/>
<feOffset dx="2.14412" dy="1.42941"/>
<feGaussianBlur stdDeviation="0.714706"/>
<feComposite in2="hardAlpha" operator="out"/>
<feColorMatrix type="matrix" values="0 0 0 0 0 0 0 0 0 0 0 0 0 0 0 0 0 0 0.35 0"/>
<feBlend mode="normal" in2="effect1_dropShadow_609_140" result="effect2_dropShadow_609_140"/>
<feBlend mode="normal" in="SourceGraphic" in2="effect2_dropShadow_609_140" result="shape"/>
</filter>
<filter id="filter1_f_609_140" x="7.4308" y="7.45331" width="51.8611" height="61.7657" filterUnits="userSpaceOnUse" color-interpolation-filters="sRGB">
<feFlood flood-opacity="0" result="BackgroundImageFix"/>
<feBlend mode="normal" in="SourceGraphic" in2="BackgroundImageFix" result="shape"/>
<feGaussianBlur stdDeviation="0.357353" result="effect1_foregroundBlur_609_140"/>
</filter>
<filter id="filter2_f_609_140" x="45.2988" y="2.91297" width="17.0548" height="25.8168" filterUnits="userSpaceOnUse" color-interpolation-filters="sRGB">
<feFlood flood-opacity="0" result="BackgroundImageFix"/>
<feBlend mode="normal" in="SourceGraphic" in2="BackgroundImageFix" result="shape"/>
<feGaussianBlur stdDeviation="0.519565" result="effect1_foregroundBlur_609_140"/>
</filter>
<linearGradient id="paint0_linear_609_140" x1="32.6589" y1="2" x2="32.6589" y2="129.218" gradientUnits="userSpaceOnUse">
<stop stop-color="#FFAE6A"/>
<stop offset="1" stop-color="#FF8640"/>
</linearGradient>
<linearGradient id="paint1_linear_609_140" x1="32.6589" y1="2" x2="32.6589" y2="129.218" gradientUnits="userSpaceOnUse">
<stop stop-color="#FFAE6A"/>
<stop offset="1" stop-color="#FF8640"/>
</linearGradient>
<linearGradient id="paint2_linear_609_140" x1="32.6589" y1="2" x2="32.6589" y2="129.218" gradientUnits="userSpaceOnUse">
<stop stop-color="#FFF0C9"/>
<stop offset="1" stop-color="#FFE5AF"/>
</linearGradient>
<linearGradient id="paint3_linear_609_140" x1="30.0011" y1="-6.57281" x2="30.0011" y2="60.9706" gradientUnits="userSpaceOnUse">
<stop stop-color="#FFC35B"/>
<stop offset="0.359375" stop-color="#FFC35B"/>
<stop offset="1" stop-color="#FFBC51"/>
</linearGradient>
</defs>
</svg>
